<?xml version="1.0" encoding="UTF-8"?>
<svg id="Layer_1" data-name="Layer 1" xmlns="http://www.w3.org/2000/svg" viewBox="0 0 13.69 13.69">
  <defs>
    <style>
      .cls-1 {
        fill: #fffefc;
      }
    </style>
  </defs>
  <rect width="13.69" height="13.69" rx="3.05" ry="3.05" />
  <path class="cls-1" d="M4.4,2.03h.45v.41h-.45v-.41ZM4.4,3.7h.45v.42h-.45v-.42ZM4.4,5.38h.45v.42h-.45v-.42ZM4.4,7.05h.45v.42h-.45v-.42ZM4.4,8.73h.45v.42h-.45v-.42ZM4.4,10.4h.45v.42h-.45v-.42ZM5.29,2.86h.45v.42h-.45v-.42ZM5.29,4.54h.45v.42h-.45v-.42ZM5.29,6.21h.45v.42h-.45v-.42ZM5.29,7.89h.45v.42h-.45v-.42ZM5.29,9.57h.45v.42h-.45v-.42ZM5.29,11.24h.45v.42h-.45v-.42ZM6.18,2.03h.45v.41h-.45v-.41ZM6.18,3.7h.45v.42h-.45v-.42ZM6.18,5.38h.45v.42h-.45v-.42ZM6.18,7.05h.45v.42h-.45v-.42ZM6.18,8.73h.45v.42h-.45v-.42ZM6.18,10.4h.45v.42h-.45v-.42ZM7.07,2.86h.45v.42h-.45v-.42ZM7.07,4.54h.45v.42h-.45v-.42ZM7.07,6.21h.45v.42h-.45v-.42ZM7.07,7.89h.45v.42h-.45v-.42ZM7.07,9.57h.45v.42h-.45v-.42ZM7.07,11.24h.45v.42h-.45v-.42ZM7.96,2.03h.45v.41h-.45v-.41ZM7.96,3.7h.45v.42h-.45v-.42ZM7.96,5.38h.45v.42h-.45v-.42ZM7.96,7.05h.45v.42h-.45v-.42ZM7.96,8.73h.45v.42h-.45v-.42ZM7.96,10.4h.45v.42h-.45v-.42ZM8.85,2.86h.44v.42h-.44v-.42ZM8.85,4.54h.44v.42h-.44v-.42ZM8.85,6.21h.44v.42h-.44v-.42ZM8.85,7.89h.44v.42h-.44v-.42ZM8.85,9.57h.44v.42h-.44v-.42ZM8.85,11.24h.44v.42h-.44v-.42Z" />
</svg>
